<?xml version="1.0" encoding="utf-8"?>
<!-- Generator: Adobe Illustrator 16.0.0, SVG Export Plug-In . SVG Version: 6.00 Build 0)  -->
<!DOCTYPE svg PUBLIC "-//W3C//DTD SVG 1.1//EN" "http://www.w3.org/Graphics/SVG/1.1/DTD/svg11.dtd">
<svg version="1.1" id="Layer_1" xmlns="http://www.w3.org/2000/svg" xmlns:xlink="http://www.w3.org/1999/xlink" x="0px" y="0px"
	 width="600px" height="100px" viewBox="-0.861 310.945 600 100" enable-background="new -0.861 310.945 600 100"
	 xml:space="preserve">
<g>
	<path fill="#4296D2" d="M7.139,402.312V322.38h28.319c28.383,0,42.581,12.985,42.581,38.962c0,12.45-3.875,22.39-11.625,29.825
		c-7.745,7.432-18.066,11.147-30.956,11.147L7.139,402.312L7.139,402.312z M25.141,337.037v50.669h8.92
		c7.802,0,13.921-2.344,18.368-7.026c4.438-4.683,6.66-11.053,6.66-19.115c0-7.622-2.202-13.612-6.605-17.979
		c-4.405-4.37-10.579-6.551-18.532-6.551L25.141,337.037L25.141,337.037z"/>
	<path fill="#4296D2" d="M125.084,403.705c-11.449,0-20.775-3.727-27.981-11.176c-7.21-7.451-10.815-17.157-10.815-29.123
		c0-12.637,3.661-22.855,10.981-30.656c7.327-7.807,17.023-11.707,29.098-11.707c11.403,0,20.631,3.735,27.677,11.203
		c7.036,7.469,10.556,17.317,10.556,29.542c0,12.563-3.645,22.686-10.944,30.38C146.35,399.855,136.822,403.705,125.084,403.705z
		 M125.865,336.536c-6.318,0-11.335,2.372-15.05,7.11c-3.714,4.737-5.572,11.01-5.572,18.812c0,7.914,1.858,14.179,5.572,18.785
		c3.715,4.605,8.587,6.913,14.608,6.913c6.205,0,11.128-2.238,14.771-6.718c3.645-4.477,5.461-10.694,5.461-18.644
		c0-8.288-1.767-14.734-5.294-19.342C136.822,338.843,131.999,336.536,125.865,336.536z"/>
	<path fill="#4296D2" d="M249.78,402.312h-18.178l-32.939-50.222c-1.936-2.935-3.273-5.146-4.013-6.632h-0.224
		c0.299,2.825,0.444,7.134,0.444,12.932v43.924h-17.002V322.38h19.402l31.717,48.66c1.447,2.192,2.782,4.369,4.012,6.524h0.221
		c-0.297-1.859-0.443-5.521-0.443-10.981V322.38h16.995v79.932H249.78z"/>
	<path fill="#F05A5B" d="M281.926,320.486l-10.757,24.745h-10.811l6.351-24.745H281.926z"/>
	<path fill="#4296D2" d="M352.433,337.037h-22.797v65.274H311.58v-65.274H288.89v-14.658h63.55v14.658H352.433z"/>
</g>
<g>
	<path fill="#4296D2" d="M399.084,374.774v27.535h-18.002v-79.932h28.201c20.138,0,30.21,8.49,30.21,25.472
		c0,8.026-2.889,14.522-8.664,19.483c-5.776,4.955-13.496,7.44-23.159,7.44h-8.586V374.774z M399.084,336.204v24.917h7.083
		c9.585,0,14.382-4.203,14.382-12.602c0-8.214-4.795-12.319-14.382-12.319L399.084,336.204L399.084,336.204z"/>
	<path fill="#4296D2" d="M521.492,402.312h-19.624l-5.685-17.786H467.76l-5.632,17.786h-19.507l29.092-79.931h21.349
		L521.492,402.312z M492.062,370.702l-8.59-26.867c-0.627-2.002-1.075-4.402-1.335-7.186h-0.447c-0.187,2.34-0.656,4.66-1.396,6.966
		l-8.697,27.086H492.062z"/>
	<path fill="#4296D2" d="M591.723,322.377l-26.033,51.504v28.428h-18.006v-28.098l-25.36-51.831h20.571l12.875,29.82
		c0.223,0.555,0.833,2.731,1.838,6.522h0.225c0.486-2.677,1.063-4.776,1.727-6.3l13.104-30.042h19.061V322.377z"/>
</g>
</svg>
