<?xml version="1.0" encoding="utf-8"?>
<!-- Generator: Adobe Illustrator 16.0.0, SVG Export Plug-In . SVG Version: 6.00 Build 0)  -->
<!DOCTYPE svg PUBLIC "-//W3C//DTD SVG 1.1//EN" "http://www.w3.org/Graphics/SVG/1.1/DTD/svg11.dtd">
<svg version="1.1" id="Layer_1" xmlns="http://www.w3.org/2000/svg" xmlns:xlink="http://www.w3.org/1999/xlink" x="0px" y="0px"
	 width="595.279px" height="841.89px" viewBox="0 0 595.279 841.89" enable-background="new 0 0 595.279 841.89"
	 xml:space="preserve">
<g id="Layer_4_1_">
	<g>
		<path fill="#4296D2" d="M141.044,533.889v-75.874h26.882c26.943,0,40.42,12.326,40.42,36.985c0,11.817-3.679,21.254-11.035,28.312
			c-7.352,7.054-17.15,10.58-29.387,10.58L141.044,533.889L141.044,533.889z M158.133,471.927v48.098h8.467
			c7.407,0,13.216-2.224,17.436-6.668c4.213-4.445,6.322-10.493,6.322-18.146c0-7.234-2.09-12.921-6.271-17.066
			c-4.181-4.147-10.042-6.219-17.591-6.219L158.133,471.927L158.133,471.927z"/>
		<path fill="#4296D2" d="M253.004,535.212c-10.868,0-19.721-3.539-26.561-10.609c-6.845-7.071-10.267-16.286-10.267-27.644
			c0-11.997,3.476-21.695,10.424-29.102c6.955-7.409,16.16-11.111,27.622-11.111c10.825,0,19.583,3.546,26.271,10.633
			c6.68,7.093,10.021,16.441,10.021,28.045c0,11.925-3.461,21.533-10.39,28.839C273.191,531.559,264.145,535.212,253.004,535.212z
			 M253.745,471.452c-5.997,0-10.761,2.251-14.287,6.75c-3.525,4.496-5.289,10.45-5.289,17.857c0,7.514,1.763,13.459,5.289,17.832
			c3.526,4.371,8.151,6.561,13.867,6.561c5.89,0,10.564-2.123,14.022-6.375c3.459-4.251,5.184-10.151,5.184-17.699
			c0-7.867-1.677-13.986-5.026-18.36C264.145,473.643,259.568,471.452,253.745,471.452z"/>
		<path fill="#4296D2" d="M371.37,533.889h-17.253l-31.27-47.671c-1.837-2.786-3.106-4.885-3.809-6.297h-0.214
			c0.284,2.682,0.423,6.772,0.423,12.276v41.694h-16.139v-75.877h18.416l30.109,46.191c1.372,2.079,2.64,4.146,3.807,6.192h0.212
			c-0.284-1.766-0.424-5.241-0.424-10.425v-41.959h16.135v75.874H371.37z"/>
		<path fill="#F05A5B" d="M401.885,456.215l-10.212,23.491h-10.262l6.029-23.491H401.885z"/>
		<path fill="#4296D2" d="M468.817,471.927h-21.64v61.96h-17.141v-61.96h-21.54v-13.915h60.325v13.915H468.817z"/>
	</g>
	<g>
		<path fill="#4296D2" d="M222.044,600.829v26.137h-17.087v-75.874h26.772c19.113,0,28.676,8.061,28.676,24.181
			c0,7.619-2.743,13.783-8.226,18.493c-5.483,4.706-12.811,7.063-21.984,7.063L222.044,600.829L222.044,600.829z M222.044,564.216
			v23.651h6.724c9.099,0,13.653-3.986,13.653-11.96c0-7.797-4.551-11.694-13.653-11.694L222.044,564.216L222.044,564.216z"/>
		<path fill="#4296D2" d="M338.242,626.968h-18.627l-5.397-16.882h-26.982l-5.344,16.882h-18.518l27.617-75.874h20.265
			L338.242,626.968z M310.304,596.964l-8.152-25.503c-0.596-1.901-1.021-4.181-1.267-6.823h-0.426
			c-0.177,2.223-0.621,4.426-1.324,6.614l-8.254,25.712H310.304z"/>
		<path fill="#4296D2" d="M404.909,551.091l-24.712,48.89v26.984h-17.091v-26.668l-24.073-49.203h19.525l12.222,28.308
			c0.211,0.525,0.794,2.594,1.745,6.191h0.215c0.46-2.541,1.007-4.534,1.638-5.98l12.438-28.519h18.094V551.091z"/>
	</g>
	<g>
		<path fill="#4296D2" d="M349.704,367.315v59.707h-42.806V253.704h64.934c43.665,0,65.504,18.413,65.504,55.237
			c0,17.405-6.262,31.487-18.793,42.246c-12.526,10.748-29.264,16.128-50.219,16.128H349.704L349.704,367.315z M349.704,283.675
			v54.027h15.36c20.791,0,31.188-9.104,31.188-27.317c0-17.806-10.397-26.713-31.188-26.713h-15.36V283.675z"/>
		<path fill="#F05A5B" d="M299.819,253.708v173.318h-57.62c-61.553,0-92.342-28.161-92.342-84.487
			c0-26.99,8.405-48.546,25.203-64.664c16.8-16.119,39.18-24.173,67.139-24.173h57.62V253.708z M262.675,395.241V285.373h-17.449
			c-16.921,0-30.197,5.081-39.827,15.234c-9.631,10.152-14.444,23.968-14.444,41.454c0,16.52,4.769,29.511,14.322,38.983
			c9.555,9.47,22.946,14.203,40.186,14.203h17.213V395.241z"/>
	</g>
	<g>
		<g>
			<g>
				<path fill="#4296D2" d="M72.685,438.917c-1.566,0-2.833-1.269-2.833-2.834c0-127.54,103.763-231.303,231.306-231.303
					c55.808,0,109.704,20.152,151.757,56.74c41.635,36.228,68.995,86.089,77.034,140.397c0.232,1.547-0.837,2.989-2.387,3.219
					c-1.538,0.224-2.984-0.838-3.217-2.388c-16.231-109.628-112.182-192.302-223.19-192.302
					c-124.415,0-225.637,101.22-225.637,225.636C75.519,437.648,74.249,438.917,72.685,438.917z"/>
				<g>
					<polygon fill="#4296D2" points="504.427,388.325 526.104,395.4 546.247,384.709 529.625,436.083 					"/>
				</g>
			</g>
			<path fill="#4296D2" d="M72.685,441.75c-3.13,0-5.667-2.536-5.667-5.668c0-129.102,105.032-234.137,234.14-234.137
				c98.52,0,187.089,62.264,220.398,154.937c5.727,15.934,9.713,32.545,11.851,49.376c0.395,3.105-1.801,5.942-4.906,6.335
				c-3.098,0.392-5.942-1.801-6.338-4.907c-2.036-16.013-5.83-31.815-11.276-46.973C479.19,272.53,394.908,213.279,301.151,213.279
				c-122.853,0-222.803,99.949-222.803,222.803C78.353,439.214,75.814,441.75,72.685,441.75z"/>
		</g>
		<g>
			<g>
				<path fill="#F05A5B" d="M301.15,674.94c-55.808,0-109.703-20.151-151.758-56.737c-41.638-36.23-68.996-86.092-77.036-140.399
					c-0.229-1.546,0.839-2.988,2.387-3.218c1.539-0.23,2.989,0.838,3.219,2.388c16.231,109.629,112.181,192.301,223.188,192.301
					c124.418,0,225.642-101.221,225.642-225.637c0-1.564,1.27-2.833,2.834-2.833s2.834,1.269,2.834,2.833
					C532.458,571.18,428.693,674.94,301.15,674.94z"/>
				<g>
					<polygon fill="#F05A5B" points="97.879,491.399 76.201,484.324 56.061,495.015 72.685,443.64 					"/>
				</g>
			</g>
			<path fill="#F05A5B" d="M301.15,677.776c-58.552,0-114.6-21.726-157.812-61.179c-42.931-39.19-69.643-92.504-75.222-150.123
				c-0.302-3.115,1.978-5.885,5.094-6.187c3.106-0.313,5.885,1.98,6.188,5.094C90.497,580.004,185.829,666.44,301.15,666.44
				c122.855,0,222.807-99.949,222.807-222.803c0-3.129,2.535-5.667,5.668-5.667c3.129,0,5.667,2.538,5.667,5.667
				C535.292,572.744,430.259,677.776,301.15,677.776z"/>
		</g>
	</g>
</g>
</svg>
