<?xml version="1.0" encoding="utf-8"?>
<!-- Generator: Adobe Illustrator 16.0.0, SVG Export Plug-In . SVG Version: 6.00 Build 0)  -->
<!DOCTYPE svg PUBLIC "-//W3C//DTD SVG 1.1//EN" "http://www.w3.org/Graphics/SVG/1.1/DTD/svg11.dtd">
<svg version="1.1" id="Layer_1" xmlns="http://www.w3.org/2000/svg" xmlns:xlink="http://www.w3.org/1999/xlink" x="0px" y="0px"
	 width="608.088px" height="596px" viewBox="-6.405 252.167 608.088 596" enable-background="new -6.405 252.167 608.088 596"
	 xml:space="preserve">
<g id="Layer_4_1_">
	<g>
		<path fill="#4296D2" d="M103.753,666.351v-92.039h32.608c32.684,0,49.032,14.952,49.032,44.864
			c0,14.336-4.462,25.781-13.386,34.343c-8.918,8.558-20.803,12.835-35.646,12.835L103.753,666.351L103.753,666.351z
			 M124.482,591.188v58.346h10.271c8.985,0,16.031-2.7,21.15-8.091c5.111-5.392,7.669-12.728,7.669-22.011
			c0-8.775-2.535-15.674-7.606-20.702c-5.072-5.031-12.182-7.543-21.339-7.543L124.482,591.188L124.482,591.188z"/>
		<path fill="#4296D2" d="M239.564,667.956c-13.184,0-23.922-4.291-32.22-12.869c-8.303-8.579-12.453-19.756-12.453-33.534
			c0-14.552,4.215-26.317,12.645-35.3c8.436-8.989,19.601-13.479,33.505-13.479c13.131,0,23.756,4.302,31.869,12.899
			c8.102,8.602,12.155,19.941,12.155,34.018c0,14.466-4.197,26.121-12.603,34.982C264.052,663.523,253.079,667.956,239.564,667.956z
			 M240.463,590.612c-7.275,0-13.053,2.73-17.331,8.188c-4.277,5.453-6.416,12.677-6.416,21.661c0,9.113,2.139,16.327,6.416,21.631
			c4.278,5.303,9.888,7.959,16.821,7.959c7.145,0,12.814-2.577,17.009-7.735c4.197-5.155,6.289-12.313,6.289-21.468
			c0-9.544-2.035-16.966-6.097-22.272C253.079,593.269,247.526,590.612,240.463,590.612z"/>
		<path fill="#4296D2" d="M383.148,666.351h-20.931l-37.93-57.828c-2.229-3.38-3.77-5.926-4.621-7.638h-0.259
			c0.345,3.253,0.512,8.215,0.512,14.891v50.578h-19.576v-92.042h22.341l36.521,56.031c1.667,2.522,3.204,5.029,4.62,7.512h0.256
			c-0.344-2.142-0.513-6.357-0.513-12.646v-50.897h19.571v92.039H383.148z"/>
		<path fill="#F05A5B" d="M420.164,572.13l-12.388,28.493H395.33l7.312-28.493H420.164z"/>
		<path fill="#4296D2" d="M501.352,591.188h-26.249v75.162h-20.792v-75.162h-26.129v-16.879h73.178v16.879H501.352z"/>
	</g>
	<g>
		<path fill="#4296D2" d="M202.009,747.551v31.706h-20.728v-92.04h32.476c23.186,0,34.785,9.776,34.785,29.332
			c0,9.24-3.327,16.721-9.978,22.434c-6.652,5.706-15.54,8.566-26.668,8.566h-9.887V747.551z M202.009,703.138v28.691h8.156
			c11.037,0,16.562-4.838,16.562-14.51c0-9.458-5.52-14.186-16.562-14.186L202.009,703.138L202.009,703.138z"/>
		<path fill="#4296D2" d="M342.961,779.26h-22.595l-6.548-20.479h-32.73l-6.482,20.479h-22.463l33.499-92.038h24.582L342.961,779.26
			z M309.072,742.862l-9.889-30.936c-0.725-2.306-1.239-5.07-1.538-8.274h-0.516c-0.214,2.694-0.753,5.366-1.606,8.021
			l-10.012,31.188H309.072z"/>
		<path fill="#4296D2" d="M423.832,687.217l-29.978,59.306v32.734h-20.732v-32.354l-29.201-59.682h23.686l14.825,34.336
			c0.256,0.64,0.961,3.146,2.117,7.511h0.259c0.56-3.083,1.222-5.5,1.988-7.255l15.087-34.592h21.949V687.217z"/>
	</g>
	<g>
		<path fill="#4296D2" d="M356.864,464.288v72.43h-51.923V326.474h78.766c52.969,0,79.458,22.335,79.458,67.006
			c0,21.11-7.594,38.194-22.796,51.246c-15.194,13.037-35.497,19.562-60.918,19.562H356.864L356.864,464.288z M356.864,362.831
			v65.535h18.634c25.22,0,37.834-11.042,37.834-33.135c0-21.6-12.614-32.405-37.834-32.405h-18.634V362.831z"/>
		<path fill="#F05A5B" d="M296.352,326.479v210.242h-69.895c-74.665,0-112.015-34.16-112.015-102.487
			c0-32.741,10.196-58.888,30.572-78.44c20.379-19.553,47.528-29.323,81.443-29.323h69.895V326.479z M251.294,498.165V364.89
			h-21.166c-20.526,0-36.631,6.164-48.312,18.479c-11.683,12.315-17.521,29.073-17.521,50.286c0,20.039,5.784,35.798,17.373,47.288
			c11.589,11.485,27.834,17.229,48.747,17.229h20.878V498.165z"/>
	</g>
	<g>
		<g>
			<g>
				<path fill="#4296D2" d="M20.83,551.145c-1.899,0-3.438-1.54-3.438-3.439c0-154.709,125.868-280.579,280.583-280.579
					c67.699,0,133.076,24.445,184.088,68.828c50.504,43.945,83.693,104.431,93.446,170.306c0.279,1.88-1.017,3.628-2.897,3.908
					c-1.864,0.271-3.62-1.019-3.9-2.896c-19.69-132.987-136.081-233.271-270.74-233.271c-150.92,0-273.707,122.785-273.707,273.704
					C24.268,549.605,22.728,551.145,20.83,551.145z"/>
				<g>
					<polygon fill="#4296D2" points="544.549,489.774 570.845,498.358 595.279,485.389 575.117,547.706 					"/>
				</g>
			</g>
			<path fill="#4296D2" d="M20.83,554.583c-3.797,0-6.875-3.077-6.875-6.877c0-156.605,127.408-284.016,284.02-284.016
				c119.508,0,226.947,75.528,267.352,187.947c6.947,19.325,11.782,39.476,14.376,59.893c0.478,3.769-2.186,7.208-5.952,7.685
				c-3.755,0.477-7.208-2.184-7.687-5.951c-2.471-19.424-7.073-38.594-13.68-56.98C513.937,349.31,411.698,277.436,297.97,277.436
				c-149.027,0-270.271,121.243-270.271,270.268C27.705,551.505,24.625,554.583,20.83,554.583z"/>
		</g>
		<g>
			<g>
				<path fill="#F05A5B" d="M297.968,837.449c-67.698,0-133.074-24.443-184.089-68.823
					c-50.508-43.947-83.695-104.432-93.447-170.311c-0.278-1.876,1.018-3.624,2.896-3.904c1.867-0.277,3.625,1.018,3.905,2.896
					c19.689,132.986,136.081,233.27,270.738,233.27c150.923,0,273.711-122.784,273.711-273.704c0-1.897,1.54-3.438,3.438-3.438
					c1.899,0,3.438,1.541,3.438,3.438C578.552,711.584,452.68,837.449,297.968,837.449z"/>
				<g>
					<polygon fill="#F05A5B" points="51.391,614.808 25.094,606.225 0.664,619.194 20.83,556.875 					"/>
				</g>
			</g>
			<path fill="#F05A5B" d="M297.968,840.89c-71.027,0-139.015-26.354-191.433-74.213c-52.076-47.539-84.478-112.209-91.246-182.103
				c-0.367-3.781,2.399-7.14,6.18-7.508c3.767-0.378,7.138,2.404,7.506,6.18C42.437,722.291,158.078,827.14,297.968,827.14
				c149.028,0,270.271-121.242,270.271-270.269c0-3.797,3.076-6.876,6.878-6.876c3.795,0,6.873,3.079,6.873,6.876
				C581.99,713.484,454.581,840.89,297.968,840.89z"/>
		</g>
	</g>
</g>
</svg>
