<?xml version="1.0" standalone="no"?>
<svg xmlns="http://www.w3.org/2000/svg" viewBox="0 0 90 74" width="90" height="74"><g fill="#0b0cac" color="#0b0cac" transform="translate(22.725 0) scale(0.4888889) "><svg width="90.0" height="90.0" x="0.0" y="0.0" viewBox="0 0 90 90"><path d="M37.104,50.536c0.313-0.005,0.625,0.094,0.906,0.266c0.803,0.489,1.09,1.589,0.6,2.516l-2.166,4.068  c-0.49,0.926-1.512,1.203-2.309,0.703s-1.082-1.588-0.588-2.516l2.166-4.072C36.068,50.833,36.584,50.547,37.104,50.536z   M31.803,48.833c0.307,0,0.635,0.093,0.979,0.25c0.854,0.391,1.084,1.584,0.588,2.505l-2.16,4.073  c-0.496,0.927-1.506,1.197-2.303,0.697s-1.088-1.588-0.6-2.51l2.168-4.072C30.834,49.104,31.287,48.837,31.803,48.833z   M25.771,48.411c0.307-0.005,0.635,0.093,0.957,0.281c0.813,0.475,1.084,1.589,0.594,2.51l-2.166,4.074  c-0.494,0.926-1.506,1.203-2.303,0.703c-0.797-0.495-1.088-1.593-0.594-2.516l2.168-4.072  C24.781,48.719,25.256,48.421,25.771,48.411z M19.916,47.583c0.309,0,0.637,0.088,0.98,0.246c0.854,0.391,1.191,1.38,0.588,2.514  l-2.166,4.068c-0.49,0.922-1.5,1.204-2.297,0.704s-1.084-1.589-0.59-2.516l2.162-4.068C18.947,47.864,19.406,47.593,19.916,47.583z   M29.604,30.667c0.559,0.015,1.094,0.224,1.578,0.676l3.813,3.568l-4.281,0.407c-0.104,0.005-0.207,0.03-0.301,0.073l-8.131,3.525  c-0.891,0.391-1.406,0.063-1.729-0.426c-0.318-0.486-0.375-1.027,0.203-1.511l6.004-5.057C27.688,31.145,28.678,30.64,29.604,30.667  z M29.932,28.744c-1.557-0.104-3.191,0.584-4.457,1.646l-4.23,3.557L8.771,33.203c-1.287-0.079-1.309,1.942-0.021,2.006l10.344,0.62  c-0.947,1.115-0.928,2.692-0.213,3.771c0.791,1.202,2.516,1.891,4.197,1.155l7.979-3.464l6.234-0.593l8.834,0.421  c0.15,0.005,0.303-0.02,0.443-0.083c0,0,8.26-3.489,12.375-5.276c2.354-1.027,4.729-0.792,6.297,0.683  c0.453,0.432,1.094,1.047,1.688,1.614l-3.293,0.197c-0.969,0.058-1.744,0.276-2.348,0.678c-0.6,0.405-0.99,1.016-1.125,1.615  c-0.271,1.203,0.203,2.234,0.807,2.932l13.063,14.995c1.541,1.766-1.234,4.042-2.916,2.479l-8.506-7.879  c-0.197-0.182-0.459-0.282-0.729-0.271c-0.896,0.041-1.293,1.141-0.631,1.74l6.494,6.02c0.115,0.391-0.113,0.72-0.379,0.991  c-0.418,0.416-0.969,0.672-2.068-0.188l-6.494-5.083c-0.188-0.152-0.418-0.229-0.652-0.224c-0.953,0.009-1.354,1.224-0.594,1.801  l4.293,3.355c0.25,0.364,0.182,0.801-0.105,1.068c-0.313,0.291-0.973,0.567-2.422-0.464l-6-4.275  c-0.188-0.142-0.422-0.208-0.656-0.193c-0.947,0.068-1.281,1.287-0.504,1.822l3.16,2.256c1.422,1.011-0.094,2.724-2.082,1.178  l-8.834-6.865c-0.197-0.151-0.438-0.224-0.688-0.203l-3.021,0.208c-0.182-1.094-0.775-2.109-1.744-2.714  c-1.213-0.76-2.641-0.655-3.74,0.079c-0.297-0.724-0.797-1.371-1.488-1.803c-1.637-1.025-3.668-0.495-4.725,1.079  c-0.307-0.584-0.744-1.1-1.328-1.464c-1.5-0.938-3.338-0.579-4.447,0.703c-0.313-0.629-0.771-1.181-1.387-1.566  c-0.656-0.412-1.379-0.573-2.078-0.521c-1.16,0.088-2.254,0.781-2.869,1.927l-2.162,4.067c-0.348,0.662-0.494,1.396-0.463,2.12  l-5.584,0.735C7.334,54.53,7.6,56.572,8.943,56.369l5.906-0.776c0.301,0.511,0.707,0.964,1.223,1.292  c1.5,0.943,3.344,0.572,4.459-0.709c0.307,0.631,0.771,1.188,1.385,1.568c1.637,1.026,3.668,0.5,4.725-1.078  c0.307,0.588,0.744,1.104,1.322,1.463c1.215,0.761,2.646,0.661,3.74-0.078c0.303,0.729,0.803,1.369,1.494,1.802  c1.746,1.094,3.984,0.442,4.938-1.406l2.422-4.682l2.918-0.205l8.541,6.625c0.994,0.771,1.938,1.156,2.834,1.167  c0.9,0.005,1.688-0.421,2.172-1.005c0.316-0.38,0.516-0.818,0.635-1.266l0.51,0.365c1.918,1.364,3.85,1.318,4.943,0.296  c0.307-0.287,0.525-0.64,0.678-1.017l0.275,0.22C65.74,60.26,67.678,60,68.729,59.02c0.287-0.266,0.512-0.572,0.688-0.906  l0.34,0.312c0.828,0.771,1.775,1.172,2.688,1.192c0.91,0.021,1.734-0.333,2.375-0.858c0.922-0.756,1.551-1.86,1.676-3.036  l4.547,0.646c1.324,0.188,1.605-1.803,0.281-1.984l-5.379-0.762L62.475,38.167c-1.137-1.308,0.088-1.844,1.281-1.912l17.484-1.046  c1.27-0.094,1.223-2.079-0.053-2.006l-11.531,0.692c-0.412-0.41-2.016-2.004-3.037-2.9c-1.453-1.267-2.938-1.854-4.582-1.854  c-1.641,0-2.746,0.292-3.887,0.776c-4.057,1.735-11.91,5.074-12.172,5.188l-8.27-0.396l-5.156-4.823  C31.775,29.162,30.869,28.807,29.932,28.744z"></path></svg></g><path fill="#NaNNaNNaN" fill-rule="nonzero" d="M5.62 16.73L5.62 16.73Q4.10 16.73 2.80 16.56Q1.49 16.39 0.02 16.32L0.02 16.32Q0 16.18 0 15.74Q0 15.31 0.07 14.98L0.07 14.98L1.03 14.90Q1.25 12.46 1.25 8.41Q1.25 4.37 1.01 2.47L1.01 2.47L0.07 2.40Q0 2.11 0 1.66Q0 1.20 0.02 1.06L0.02 1.06Q1.61 1.03 2.88 0.84Q4.15 0.65 5.62 0.65L5.62 0.65Q8.66 0.65 10.30 2.70Q11.93 4.75 11.93 8.57L11.93 8.57Q11.93 16.73 5.62 16.73ZM5.62 15.02L5.62 15.02Q7.68 15.02 8.77 13.37Q9.86 11.71 9.86 8.58Q9.86 5.45 8.76 3.76Q7.66 2.06 5.59 2.06L5.59 2.06Q4.39 2.06 3.22 2.52L3.22 2.52Q3.05 4.56 3.05 8.45Q3.05 12.34 3.24 14.52L3.24 14.52Q4.37 15.02 5.62 15.02ZM14.09 10.68Q14.09 4.90 18.60 4.90Q23.11 4.90 23.11 10.68L23.11 10.68Q23.11 13.34 22.27 14.90L22.27 14.90Q21.31 16.73 18.60 16.73Q15.89 16.73 14.93 14.90L14.93 14.90Q14.09 13.34 14.09 10.68L14.09 10.68ZM16.06 10.62Q16.06 15.00 18.60 15.00Q21.14 15.00 21.14 10.62Q21.14 6.24 18.60 6.24Q16.06 6.24 16.06 10.62ZM34.82 7.97L34.82 7.97L34.80 10.30Q34.80 12.82 35.09 14.98L35.09 14.98L35.93 15.05Q35.98 15.58 35.98 15.78Q35.98 15.98 35.90 16.39L35.90 16.39Q35.23 16.37 33.89 16.37Q32.54 16.37 31.97 16.39L31.97 16.39Q31.90 16.03 31.90 15.71Q31.90 15.38 31.94 15.05L31.94 15.05L32.78 14.98Q32.98 12.17 32.98 10.16Q32.98 8.16 32.58 7.30Q32.18 6.43 31.22 6.43L31.22 6.43Q29.93 6.43 28.37 7.99L28.37 7.99Q28.34 8.62 28.34 10.91Q28.34 13.20 28.56 14.98L28.56 14.98L29.45 15.05Q29.50 15.58 29.50 15.78Q29.50 15.98 29.42 16.39L29.42 16.39Q28.75 16.37 27.46 16.37Q26.16 16.37 25.56 16.39L25.56 16.39Q25.49 16.03 25.49 15.71Q25.49 15.38 25.54 15.05L25.54 15.05L26.38 14.98Q26.59 12.58 26.59 10.57Q26.59 8.57 26.40 6.60L26.40 6.60L25.51 6.53Q25.44 6.12 25.44 5.72Q25.44 5.33 25.46 5.18L25.46 5.18Q26.69 5.16 28.44 4.97L28.44 4.97L28.56 5.09Q28.51 5.38 28.42 6.53L28.42 6.53Q29.16 5.78 30.14 5.34Q31.13 4.90 31.99 4.90L31.99 4.90Q34.82 4.90 34.82 7.97ZM38.42 0.12L38.42 0.12Q38.98 0 39.68 0Q40.39 0 40.61 0.07L40.61 0.07Q40.34 2.98 40.34 5.64L40.34 5.64Q39.91 5.78 39.49 5.78Q39.07 5.78 38.78 5.71L38.78 5.71Q38.78 2.57 38.42 0.12ZM43.85 12.48L43.85 12.48Q43.85 12.48 43.90 7.13L43.90 7.13Q43.90 6.77 43.87 6.58L43.87 6.58Q42.86 6.58 42.43 6.60L42.43 6.60Q42.29 6.22 42.29 5.84Q42.29 5.47 42.34 5.28L42.34 5.28L43.80 5.28L43.68 3.50Q44.28 3.31 44.94 3.31Q45.60 3.31 46.03 3.41L46.03 3.41L45.82 5.26Q47.14 5.23 48.48 5.11L48.48 5.11Q48.62 5.42 48.62 5.80Q48.62 6.17 48.53 6.70L48.53 6.70Q47.64 6.65 45.72 6.60L45.72 6.60Q45.67 7.08 45.67 8.02L45.67 8.02L45.67 12.89Q45.67 13.51 45.73 13.91Q45.79 14.30 46.04 14.63Q46.30 14.95 46.78 14.95L46.78 14.95Q47.83 14.95 48.79 14.21L48.79 14.21Q49.30 14.93 49.30 16.15L49.30 16.15Q47.98 16.73 47.00 16.73Q46.03 16.73 45.46 16.48Q44.88 16.22 44.57 15.88Q44.26 15.53 44.09 14.90L44.09 14.90Q43.85 14.02 43.85 12.48ZM60.91 8.42L60.91 8.42Q61.61 9.12 62.58 9.12Q63.55 9.12 64.15 8.52L64.15 8.52Q65.11 7.54 65.11 5.59L65.11 5.59Q65.11 2.02 61.94 2.02L61.94 2.02Q60.94 2.02 59.69 2.54L59.69 2.54Q59.52 4.44 59.52 8.45Q59.52 12.46 59.74 14.98L59.74 14.98L61.10 15.07Q61.15 15.46 61.15 15.77Q61.15 16.08 61.08 16.39L61.08 16.39Q60.22 16.37 58.84 16.37Q57.46 16.37 56.71 16.39L56.71 16.39Q56.64 16.03 56.64 15.76Q56.64 15.48 56.69 15.05L56.69 15.05L57.53 14.98Q57.72 12.41 57.72 8.41Q57.72 4.42 57.48 2.47L57.48 2.47L56.57 2.40Q56.50 2.06 56.50 1.66Q56.50 1.25 56.52 1.06L56.52 1.06Q57.53 1.01 59.28 0.84L59.28 0.84Q60.50 0.65 61.97 0.65L61.97 0.65Q64.80 0.65 66 1.93Q67.20 3.22 67.20 5.53Q67.20 7.85 65.99 9.29Q64.78 10.73 62.30 10.73L62.30 10.73Q61.34 10.73 60.41 10.37L60.41 10.37Q60.41 9.72 60.58 9.17Q60.74 8.62 60.91 8.42ZM76.99 8.09L76.99 8.09L76.90 11.54Q76.90 13.18 77.09 14.74L77.09 14.74L77.98 14.81Q78.02 15.19 78.02 15.52Q78.02 15.84 77.95 16.20L77.95 16.20Q77.26 16.22 75.24 16.44L75.24 16.44Q75.07 15.98 74.98 15.31L74.98 15.31Q73.10 16.73 71.75 16.73Q70.39 16.73 69.64 15.85Q68.88 14.98 68.88 13.36Q68.88 11.74 69.90 10.80Q70.92 9.86 72.47 9.86Q74.02 9.86 75.12 10.44L75.12 10.44Q75.14 10.18 75.14 9.58L75.14 9.58Q75.14 7.80 74.65 7.02Q74.16 6.24 73.15 6.24Q72.14 6.24 71.69 6.62L71.69 6.62Q71.88 7.01 71.88 7.58Q71.88 8.16 71.51 8.58Q71.14 9.00 70.46 9.00L70.46 9.00Q69.34 9.00 69.34 7.67Q69.34 6.34 70.34 5.62Q71.35 4.90 73.18 4.90Q75 4.90 76.00 5.75Q76.99 6.60 76.99 8.09ZM75.02 11.95L75.02 11.95Q74.04 11.11 72.91 11.11L72.91 11.11Q70.75 11.11 70.75 13.03L70.75 13.03Q70.75 15.00 72.46 15.00L72.46 15.00Q73.08 15.00 73.79 14.68Q74.50 14.35 74.90 13.87L74.90 13.87Q75.02 12.43 75.02 11.95ZM86.38 6.58L85.37 6.50Q85.32 6.26 85.32 5.87Q85.32 5.47 85.39 5.16L85.39 5.16Q86.11 5.18 87.40 5.18Q88.68 5.18 89.38 5.16L89.38 5.16Q89.45 5.47 89.45 5.83Q89.45 6.19 89.40 6.50L89.40 6.50L88.68 6.58Q88.03 8.33 87.01 11.40Q85.99 14.47 85.48 15.91Q84.96 17.35 84.52 18.24Q84.07 19.13 83.54 19.92L83.54 19.92Q82.54 21.41 81.16 21.41Q79.78 21.41 78.62 20.64L78.62 20.64Q78.72 19.25 79.42 18.65L79.42 18.65Q80.14 19.63 81.17 19.63L81.17 19.63Q82.27 19.63 83.62 16.51L83.62 16.51Q82.39 12.22 79.75 6.58L79.75 6.58L78.96 6.50Q78.91 6.22 78.91 5.84Q78.91 5.47 78.98 5.16L78.98 5.16Q79.68 5.18 81.06 5.18Q82.44 5.18 83.16 5.16L83.16 5.16Q83.23 5.47 83.23 5.84Q83.23 6.22 83.18 6.50L83.18 6.50L82.20 6.58Q82.66 9.24 84.55 13.70L84.55 13.70L84.65 13.70Q85.85 9.82 86.38 6.58L86.38 6.58Z" transform="translate(0, 52)"></path></svg>